<?xml version="1.0" encoding="utf-8"?>

<svg height="152px"
     version="1.1"
     viewBox="0 0 272 152"
     width="272px"
     x="0px"
     xmlns="http://www.w3.org/2000/svg"
     xmlns:xlink="http://www.w3.org/1999/xlink"
     y="0px">
  <g>
    <defs>
      <path d="M88,103h24l-24,24l-24-24l-24,24v24l-24-24l24-24h7l17-17l17,17H88zM256,127l-24-24h-7l-17-17l-17,17h-7h-24l24,24l24-24l24,24v24L256,127zM112,103h24h24l-24-24L112,103z"
            id="clip" />
    </defs>

    <clipPath id="mask">
      <use overflow="visible"
           xlink:href="#clip" />
    </clipPath>

    <rect clip-path="url(#mask)"
          fill="#039"
          height="74"
          width="242"
          x="15"
          y="78" />
    <rect clip-path="url(#mask)"
          fill="#c06"
          height="74"
          width="121"
          x="136"
          y="78" />

    <g clip-path="url(#mask)">
      <polygon fill="#fff"
               opacity=".2"
               points="40,98 40,127 11,127" />
      <polygon fill="#fff"
               opacity=".4"
               points="40,137 40,103 64,103" />
      <polygon fill="#fff"
               opacity=".6"
               points="42,103 64,81 86,103" />
      <polygon fill="#fff"
               opacity=".4"
               points="64,103 88,103 88,137" />
      <polygon fill="#fff"
               opacity=".2"
               points="88,137 88,103 112,103" />
      <polygon fill="#fff"
               opacity=".8"
               points="112,103 136,103 136,69" />
      <polygon fill="#fff"
               opacity=".2"
               points="184,137 184,103 160,103" />
      <polygon fill="#fff"
               opacity=".4"
               points="208,103 184,103 184,137" />
      <polygon fill="#fff"
               opacity=".6"
               points="230,103 208,81 186,103" />
      <polygon fill="#fff"
               opacity=".4"
               points="232,137 232,103 208,103" />
      <polygon fill="#fff"
               opacity=".2"
               points="232,98 232,127 261,127" />
    </g>
  </g>

  <linearGradient gradientUnits="userSpaceOnUse"
                  id="gradient"
                  x1="136.0005"
                  x2="136.0005"
                  y2="0.8115"
                  y1="91">
    <stop offset="0"
          style="stop-color:#000" />
    <stop offset="0.2717"
          style="stop-color:#121212" />
    <stop offset="0.7226"
          style="stop-color:#2a2a2a" />
    <stop offset="1"
          style="stop-color:#333" />
  </linearGradient>

  <path clip-rule="evenodd"
        d="M8.3,23.7c-3.8-0.9-7.1-5.1-7.5-9.4s3.3-8.7,8.1-9.9c0,0,25.3-5.9,65.7-2.7c33.1,2.6,47.2,13.2,60.9,12.9c13.4-0.3,35.6-11.7,60.9-12.9c41.6-2,67,3,67,3c4.9,1,8.4,5.4,7.8,9.9s-3.7,8.3-6.9,8.6c0,0,0,0-2.2,9.1c-1.7,6.9-2.3,16.6-4.7,25.9c-1.7,6.4-4.3,12.7-8.1,17.7c-7.9,10.3-20.5,14.3-31.8,15c-10.2,0.6-38.8-1.8-51.4-15.6c-4.9-5.4-9.4-11.9-12.2-18.4c-4.2-9.9-6.2-20.9-10.8-25.9c-1.9-2-4.5-2-7.4-2c-2.2,0-4.1-0.3-5.4,0.7c-3.7,2.8-5.9,12.7-9.5,21.8c-3.1,8-7.4,16.3-12.9,22.5c-14.2,16.1-40,17.7-51.4,17c-11.7-0.7-23.2-3.5-34.5-17C12.1,62.3,13,42.7,10.3,31.7C8.3,23.7,8.3,23.7,8.3,23.7zM259,11.9c3.9,0.3,7,1.4,7.1,2.6c0.1,1.1-3.5,1.8-7.1,1.6c-3.9-0.3-7-1.2-7.1-2.6C251.7,12.4,255,11.6,259,11.9zM13,12c3.9-0.3,7.1,0.2,7.4,1.4c0.3,1.1-3.2,2.4-6.8,2.7c-3.9,0.4-7.1-0.1-7.4-1.4C6,13.6,9.1,12.3,13,12zM100.3,14c8.9,3.9,13.5,13.7,13.5,18.4c0.1,10.6-4.6,30.8-15.6,40.8C87.2,83.7,78.9,84.5,75.5,85.1c-3.5,0.6-10.7,0.5-12.6,0.4c-2,0-11.2-0.3-18.7-3.5c-5-2.3-9.4-5.4-13.5-10.2C20.9,60.6,18.7,41,19.8,31.7c1-8.4,6.3-16.3,15.6-19.7C48.2,7.1,86.4,7.9,100.3,14zM172,14c-8.9,3.9-13.5,13.7-13.5,18.4C158.4,43,163,63.1,174,73.2c12.6,11.5,31,12.2,31.8,12.2s7.6,0.2,9.2,0c1.6-0.2,6.7-0.7,13.1-3.4c4.9-2.1,9.4-5.4,13.5-10.2c9.7-11.2,11.9-30.8,10.8-40.1c-1-8.4-6.3-16.3-15.6-19.7C224.1,7.1,185.9,7.9,172,14z"
        fill="url(#gradient)"
        fill-rule="evenodd" />
</svg>
